<svg width="16" height="16" viewBox="0 0 16 16" fill="none" xmlns="http://www.w3.org/2000/svg">
<path fill-rule="evenodd" clip-rule="evenodd" d="M10.5763 9.54717H10.0343L9.8422 9.36192C10.5146 8.57976 10.9194 7.56432 10.9194 6.45969C10.9194 3.99657 8.92281 2 6.45969 2C3.99657 2 2 3.99657 2 6.45969C2 8.92281 3.99657 10.9194 6.45969 10.9194C7.56432 10.9194 8.57976 10.5146 9.36192 9.8422L9.54717 10.0343V10.5763L12.9777 14L14 12.9777L10.5763 9.54717ZM6.45969 9.54717C4.75129 9.54717 3.37221 8.1681 3.37221 6.45969C3.37221 4.75129 4.75129 3.37221 6.45969 3.37221C8.1681 3.37221 9.54717 4.75129 9.54717 6.45969C9.54717 8.1681 8.1681 9.54717 6.45969 9.54717Z" fill="#898989"/>
</svg>
